# xmcd
#
# Track frame offsets:
#	150
#	21166
#	34939
#	50716
#	64252
#	81136
#	103241
#	118724
#	140096
#	160920
#	176628
#	195829
#	216100
#	230960
#	247852
#	275566
#	306413
#	326024
#
# Disc length: 4522 seconds
#
# Revision: 1
# Processed by: cddbd v1.5.1PL0 Copyright (c) Steve Scherf et al.
# Submitted via: audiograbber 1.80
#
DISCID=1011a812
DTITLE=Ivete Sangalo - MTV ao Vivo 2004
DYEAR=1900
DGENRE=
TTITLE0=To na Rua
TTITLE1=Empurra Empurra
TTITLE2=Ceu da Boca
TTITLE3=Chica Chica Boom Chic
TTITLE4=So Pra Me Ver
TTITLE5=Sorte Grande
TTITLE6=Festa
TTITLE7=Astral Part Esp Davi Moraes
TTITLE8=Fez Tempo
TTITLE9=A Lua Que Eu Te Dei
TTITLE10=Se Eu Não Te Amasse Tanto Assim
TTITLE11=De Ladinho
TTITLE12=Perere
TTITLE13=Canibal
TTITLE14=Eva Alo Paixão Beleza Rara 
TTITLE15=Vem Meu Amor Nossa Gente
TTITLE16=Flor do Reggae
TTITLE17=Carro Velho
EXTD=
EXTT0=
EXTT1=
EXTT2=
EXTT3=
EXTT4=
EXTT5=
EXTT6=
EXTT7=
EXTT8=
EXTT9=
EXTT10=
EXTT11=
EXTT12=
EXTT13=
EXTT14=
EXTT15=
EXTT16=
EXTT17=
PLAYORDER=
